<?xml version="1.0" encoding="UTF-8" standalone="no"?>
<!-- Created with Inkscape (http://www.inkscape.org/) -->

<svg
   width="210mm"
   height="210mm"
   viewBox="0 0 210 210"
   version="1.1"
   id="svg1"
   inkscape:version="1.4.4 (1:1.4.4+202605061436+dcaf3e7d9e)"
   sodipodi:docname="logo.svg"
   xml:space="preserve"
   inkscape:export-filename="logo.png"
   inkscape:export-xdpi="15"
   inkscape:export-ydpi="15"
   xmlns:inkscape="http://www.inkscape.org/namespaces/inkscape"
   xmlns:sodipodi="http://sodipodi.sourceforge.net/DTD/sodipodi-0.dtd"
   xmlns="http://www.w3.org/2000/svg"
   xmlns:svg="http://www.w3.org/2000/svg"><sodipodi:namedview
     id="namedview1"
     pagecolor="#ffffff"
     bordercolor="#000000"
     borderopacity="0.25"
     inkscape:showpageshadow="2"
     inkscape:pageopacity="0.0"
     inkscape:pagecheckerboard="0"
     inkscape:deskcolor="#d1d1d1"
     inkscape:document-units="mm"
     inkscape:zoom="0.34079114"
     inkscape:cx="-198.06853"
     inkscape:cy="-432.81642"
     inkscape:window-width="1854"
     inkscape:window-height="1011"
     inkscape:window-x="66"
     inkscape:window-y="32"
     inkscape:window-maximized="1"
     inkscape:current-layer="layer1" /><defs
     id="defs1" /><g
     inkscape:label="Layer 1"
     inkscape:groupmode="layer"
     id="layer1"><path
       id="rect2"
       style="fill:#69c0cb;stroke-linecap:square;paint-order:stroke markers fill"
       d="M 22.246573,90.857865 90.857865,22.246572 c 7.834744,-7.834743 20.449525,-7.834743 28.284275,0 l 68.61129,68.611291 c 7.83474,7.834743 7.83474,20.449527 0,28.284267 l -68.6113,68.6113 c -7.83474,7.83474 -20.449524,7.83474 -28.284267,0 l -68.61129,-68.61129 c -7.834744,-7.83475 -7.834744,-20.449532 0,-28.284275 z" /><g
       id="g12"><g
         id="g8"
         transform="translate(27.142312,60.148386)"><g
           id="g6"
           transform="translate(-5.2916667)"><rect
             style="fill:none;fill-opacity:1;stroke:#ffffff;stroke-width:4;stroke-linecap:square;stroke-dasharray:none;stroke-opacity:1;paint-order:stroke markers fill"
             id="rect3"
             width="22.189188"
             height="35.902859"
             x="24.429758"
             y="26.900185"
             rx="2"
             ry="2" /><path
             id="rect4"
             style="fill:#ffffff;fill-opacity:1;stroke:none;stroke-width:4;stroke-linecap:square;stroke-dasharray:none;stroke-opacity:1;paint-order:stroke markers fill"
             d="m 35.600411,30.056047 -12.201322,7.044531 1.997294,3.459737 10.204028,-5.891113 10.203512,5.89163 1.99781,-3.460254 z m 0,9.525 -12.201322,7.044531 1.997294,3.459737 10.204028,-5.891113 10.203512,5.89163 1.99781,-3.460254 z m 0,9.525 -12.201322,7.044531 1.997294,3.459737 10.204028,-5.891113 10.203512,5.89163 1.99781,-3.460254 z" /></g><g
           id="g7"
           transform="translate(89.958338)"><rect
             style="fill:none;fill-opacity:1;stroke:#ffffff;stroke-width:4;stroke-linecap:square;stroke-dasharray:none;stroke-opacity:1;paint-order:stroke markers fill"
             id="rect6"
             width="22.189188"
             height="35.902859"
             x="24.429758"
             y="26.900185"
             rx="2"
             ry="2" /><path
             id="path6"
             style="fill:#ffffff;fill-opacity:1;stroke:none;stroke-width:4;stroke-linecap:square;stroke-dasharray:none;stroke-opacity:1;paint-order:stroke markers fill"
             d="m 35.600411,30.056047 -12.201322,7.044531 1.997294,3.459737 10.204028,-5.891113 10.203512,5.89163 1.99781,-3.460254 z m 0,9.525 -12.201322,7.044531 1.997294,3.459737 10.204028,-5.891113 10.203512,5.89163 1.99781,-3.460254 z m 0,9.525 -12.201322,7.044531 1.997294,3.459737 10.204028,-5.891113 10.203512,5.89163 1.99781,-3.460254 z" /></g></g><path
         id="rect8"
         style="fill:#ffffff;fill-opacity:1;stroke:none;stroke-width:4;stroke-linecap:square;stroke-dasharray:none;stroke-opacity:1;paint-order:stroke markers fill"
         d="m 72.739833,72.88289 c -3.442487,0 -6.213694,2.69682 -6.213694,6.046659 v 2.850472 20.030299 6.04666 h 6.213694 64.520337 6.21369 v -6.04666 -20.030299 -2.850472 c 0,-3.349839 -2.7712,-6.046659 -6.21369,-6.046659 z" /><rect
         style="fill:#69c0cb;fill-opacity:1;stroke:#ffffff;stroke-width:8;stroke-linecap:square;stroke-dasharray:none;stroke-opacity:1;paint-order:stroke markers fill"
         id="rect10"
         width="29.017368"
         height="37.914612"
         x="90.491318"
         y="53.925514"
         rx="3"
         ry="3.9198537" /><rect
         style="fill:#ffffff;fill-opacity:1;stroke:none;stroke-width:4.99999;stroke-linecap:square;stroke-dasharray:none;stroke-opacity:1;paint-order:stroke markers fill"
         id="rect11"
         width="37.017365"
         height="18.957306"
         x="86.491318"
         y="77.116142" /><circle
         style="fill:#69c0cb;fill-opacity:1;stroke:#ffffff;stroke-width:7.99999;stroke-linecap:square;stroke-dasharray:none;stroke-opacity:1;paint-order:stroke markers fill"
         id="path10"
         cx="105"
         cy="65.726242"
         r="3.1566544" /><g
         id="g11"
         transform="translate(-0.51703262)"><circle
           style="fill:#ffffff;fill-opacity:1;stroke:#69c0cb;stroke-width:7.99999;stroke-linecap:square;stroke-dasharray:none;stroke-opacity:1;paint-order:stroke markers fill"
           id="path11"
           cx="88.28772"
           cy="92.115364"
           r="6.8793344" /><circle
           style="fill:#ffffff;fill-opacity:1;stroke:#69c0cb;stroke-width:7.99999;stroke-linecap:square;stroke-dasharray:none;stroke-opacity:1;paint-order:stroke markers fill"
           id="path11-6"
           cx="122.74635"
           cy="92.115364"
           r="6.8793344" /></g></g><path
       style="fill:#ffffff;fill-opacity:1;stroke:none;stroke-width:0.999999"
       d="m 103.87559,172.81941 c -0.72907,-0.23119 -1.31887,-0.58295 -1.7784,-1.06065 -0.88599,-0.92102 -1.24032,-1.88383 -1.15909,-3.14951 0.0945,-1.47309 0.96198,-2.72305 2.34529,-3.37952 0.51567,-0.24471 0.73136,-0.28103 1.66894,-0.28103 0.96424,0 1.14162,0.0319 1.69777,0.30496 0.82226,0.40377 1.63475,1.21123 1.99329,1.98096 0.25396,0.54522 0.28915,0.75306 0.28753,1.698 -0.002,0.99314 -0.0279,1.12689 -0.33712,1.72279 -0.39662,0.76427 -1.0698,1.48066 -1.68872,1.7971 -0.97355,0.49777 -2.16262,0.64177 -3.02949,0.3669 z M 93.557548,162.51007 c -1.86839,-0.35761 -3.0159,-2.45149 -2.37473,-4.33321 0.20195,-0.59271 1.00579,-1.50717 2.13518,-2.42901 2.66537,-2.17557 5.88547,-3.57477 9.211672,-4.00264 1.3053,-0.16791 3.63695,-0.16877 4.95299,-10e-4 3.22832,0.40952 6.54938,1.85515 9.21167,4.00973 1.24483,1.00745 1.95603,1.84392 2.15777,2.53787 0.64156,2.20691 -0.87762,4.27094 -3.14352,4.27094 -0.93118,0 -1.62928,-0.30306 -2.46539,-1.07025 -1.70242,-1.56214 -3.3299,-2.44885 -5.54518,-3.02124 -0.85728,-0.2215 -3.44463,-0.30727 -4.53556,-0.15037 -2.22697,0.32029 -4.540952,1.4389 -6.231802,3.01252 -1.137,1.05817 -2.14964,1.41166 -3.3731,1.1775 z m -8.91575,-8.58767 c -1.04749,-0.40972 -1.75792,-1.23767 -2.02799,-2.36345 -0.30467,-1.26999 0.10576,-2.265 1.47754,-3.58208 4.33048,-4.15775 10.12463,-7.01908 16.120802,-7.96095 5.17443,-0.81279 10.44424,-0.29819 15.32263,1.49627 1.30537,0.48017 1.6439,0.63056 3.30744,1.46931 2.46721,1.24396 4.96176,3.00085 7.03019,4.95128 1.02139,0.96312 1.35035,1.46864 1.52826,2.34844 0.22807,1.12794 -0.14686,2.18368 -1.0704,3.01402 -0.65726,0.59093 -1.31383,0.83261 -2.25815,0.83121 -0.95082,-0.001 -1.62718,-0.32768 -2.61957,-1.26364 -4.74755,-4.47754 -10.79082,-6.78166 -17.2001,-6.5579 -3.69797,0.12913 -6.690432,0.88114 -9.915862,2.49193 -2.17739,1.0874 -3.73475,2.17054 -5.62972,3.91546 -0.77711,0.71557 -1.22036,1.03795 -1.64606,1.19723 -0.73021,0.27321 -1.73971,0.27858 -2.41901,0.0125 z m -8.57776,-8.71333 c -1.96724,-0.70395 -2.90695,-2.90409 -2.04021,-4.77672 0.52674,-1.13805 3.87375,-4.09416 7.13264,-6.29962 4.09656,-2.77235 8.8527,-4.84993 13.88989,-6.0674 11.488932,-2.77683 24.079552,-0.51735 33.809502,6.0674 3.27315,2.21512 6.59523,5.15218 7.14869,6.32023 0.37462,0.79058 0.39553,2.05796 0.0465,2.81843 -0.32659,0.71162 -1.03261,1.43382 -1.74244,1.78241 -0.5211,0.2559 -0.73753,0.29795 -1.52266,0.29581 -0.80327,-0.003 -0.98419,-0.0404 -1.47896,-0.31237 -0.31006,-0.17043 -1.10953,-0.81745 -1.77662,-1.43781 -3.88657,-3.61437 -7.96929,-6.0632 -12.97455,-7.7822 -3.7433,-1.2856 -7.33798,-1.86182 -11.60349,-1.86002 -4.33125,0.001 -7.910642,0.59844 -11.742892,1.95728 -5.06373,1.79549 -8.87098,4.09401 -12.72748,7.68386 -0.66708,0.62096 -1.45596,1.26132 -1.75307,1.42303 -0.73342,0.39918 -1.85341,0.47806 -2.66485,0.18769 z"
       id="path12" /></g></svg>
